<svg xmlns="http://www.w3.org/2000/svg" width="533" height="533" viewBox="0 0 533 533">
  <g id="Groupe_1" data-name="Groupe 1" transform="translate(-935 895)">
    <rect id="Rectangle_1" data-name="Rectangle 1" width="533" height="533" rx="228" transform="translate(935 -895)" fill="#fff"/>
    <g id="agence-la-panthere-monochrome" transform="translate(1829.635 -442.699)">
      <g id="_97221fff-9f5f-45e5-b2fa-fe4d6ef25df3" data-name="97221fff-9f5f-45e5-b2fa-fe4d6ef25df3" transform="translate(-817.003 -337.596)">
        <path id="Tracé_2" data-name="Tracé 2" d="M93.17,72.526v-.288a23.641,23.641,0,0,0-14.5-11.2H78.1A47.777,47.777,0,0,0,67.8,59.1a64.335,64.335,0,0,1-26.483-9.8,3.089,3.089,0,0,0-3.46,5.107,71.214,71.214,0,0,0,8.237,4.572c0,.412-.371.824-.494,1.277A25.083,25.083,0,0,0,62.692,91.184a26.607,26.607,0,0,0,7.331,1.03A24.3,24.3,0,0,0,89.34,82.823,42.547,42.547,0,0,1,88.6,95.179,3.089,3.089,0,0,0,90.534,99.3a3.13,3.13,0,0,0,.989,0,3.089,3.089,0,0,0,2.924-2.1,47.654,47.654,0,0,0,.947-16.887,20.346,20.346,0,0,0-2.224-7.784ZM74.76,66.389a5.272,5.272,0,0,1,0,2.142,5.411,5.411,0,1,1-10.42-2.924,5.231,5.231,0,0,1,.371-.7l2.471.288a44.851,44.851,0,0,1,7.661,1.236Zm3.872,17.5A19.234,19.234,0,0,1,64.3,85.212,18.9,18.9,0,0,1,51.365,61.859v-.494a65.2,65.2,0,0,0,7,2.265v.247A11.532,11.532,0,1,0,80.814,68.7a15.9,15.9,0,0,1,6.1,5.437,17.587,17.587,0,0,1-8.2,9.761ZM190.249,60.17c0-.453-.33-.824-.494-1.277a71.214,71.214,0,0,0,8.237-4.572,3.089,3.089,0,0,0-3.46-5.107,64.335,64.335,0,0,1-26.484,9.8,47.737,47.737,0,0,0-10.379,1.936h-.494A23.641,23.641,0,0,0,142.6,72.238v.206a20.346,20.346,0,0,0-2.224,8.032,47.654,47.654,0,0,0,.947,16.887,3.113,3.113,0,1,0,5.89-2.018,42.3,42.3,0,0,1-.783-12.356,24.3,24.3,0,0,0,19.317,9.391,26.609,26.609,0,0,0,7.332-1.03A25.083,25.083,0,0,0,190.249,60.17ZM168.42,65.195l2.471-.288a5.183,5.183,0,0,1,.371.7A5.354,5.354,0,0,1,167.6,72.2a5.231,5.231,0,0,1-6.714-5.807,44.854,44.854,0,0,1,7.578-1.194Zm3.007,20.017a19.235,19.235,0,0,1-14.333-1.318,17.587,17.587,0,0,1-8.238-9.8,15.9,15.9,0,0,1,6.1-5.4,11.7,11.7,0,0,0,.288,1.524A11.429,11.429,0,0,0,177.234,64v-.247a65.213,65.213,0,0,0,7-2.265v.494A18.905,18.905,0,0,1,171.426,85.212Z" transform="translate(70.884 64.257)" fill="#1d1d1b"/>
        <path id="Tracé_3" data-name="Tracé 3" d="M99.881,96.471C99.222,87.2,91.644,81.314,78.67,80.326a47.654,47.654,0,0,1-19.276-6.961,3.09,3.09,0,0,0-3.419,5.148,53.214,53.214,0,0,0,22.241,7.949c5.56.412,14.951,2.348,15.528,10.42a3.089,3.089,0,0,0,3.089,2.883h.206a3.089,3.089,0,0,0,2.842-3.295Zm53.461-10.009a53.214,53.214,0,0,0,22.241-7.949,3.09,3.09,0,1,0-3.419-5.148,47.7,47.7,0,0,1-19.317,7.084c-12.809.989-20.594,6.878-21.212,16.145a3.089,3.089,0,0,0,2.883,3.295h.206a3.089,3.089,0,0,0,3.089-2.883c.577-8.32,10.132-10.091,15.528-10.544ZM51.733,65a3.089,3.089,0,1,0,4.778-3.913L43.372,44.946a3.089,3.089,0,1,0-4.778,3.913Zm13.839-8.938a3.076,3.076,0,0,0,5.766-2.142L65.531,38.768a3.09,3.09,0,1,0-5.766,2.224Zm16.475.453a3.089,3.089,0,0,0,3.089-2.842l1.03-13.1a3.089,3.089,0,0,0-2.842-3.336,3.048,3.048,0,0,0-3.336,2.842l-1.03,13.139a3.089,3.089,0,0,0,3.089,3.3Z" transform="translate(73.77 35.452)" fill="#1d1d1b"/>
        <path id="Tracé_4" data-name="Tracé 4" d="M380.432,213.839c-16.063-5.107-53.873-4.654-84.6-3.254,20.594-25.989,20.594-51.114,16.928-62.934-2.8-8.855-7.125-31.179-1.606-39.869a6.425,6.425,0,0,1,4.86-3.171c7.249-.947,8.567-8.485,9.6-14.5a34.506,34.506,0,0,1,1.442-6.343,17.5,17.5,0,0,1,5.025-5.643,43.618,43.618,0,0,0,13.1-17.422c6.549-16.1-2.224-24.053-2.595-24.383a3.006,3.006,0,0,0-1.153-.535h-.577a25.371,25.371,0,0,0-19.811,3.007c-2.8,1.359-6.26,3.007-11.368,5.148a28.337,28.337,0,0,1-32.95-5.437c-18.534-17.793-31.591-22.941-82.7-22.941s-64.005,5.19-82.375,22.941a28.337,28.337,0,0,1-32.95,5.437q-5.758-2.407-11.368-5.148a25.371,25.371,0,0,0-19.811-3.007h-.577a3.007,3.007,0,0,0-1.153.535c-.371.33-9.144,8.237-2.595,24.383a43.617,43.617,0,0,0,13.1,17.422,17.546,17.546,0,0,1,5.025,5.643,34.6,34.6,0,0,1,.7,6.508c1.03,6.055,2.306,13.551,9.6,14.5a6.425,6.425,0,0,1,4.86,3.171c5.519,8.691,1.194,31.014-1.606,39.869-3.748,11.821-3.583,37.069,16.928,62.934-30.726-1.4-68.536-1.853-84.6,3.254a3.093,3.093,0,1,0,1.895,5.89c16.846-5.354,61.781-4.119,87.235-2.718h1.03l2.677,2.842c-31.632.453-53.091,2.636-63.84,6.508a3.089,3.089,0,1,0,2.1,5.807c10.626-3.83,34.186-5.972,68.206-6.219,1.442,1.236,2.924,2.43,4.407,3.624-26.648,1.483-70.019,4.984-86.494,12.356a3.089,3.089,0,0,0,2.471,5.643c17.175-7.537,66.641-10.873,91.518-12.15l4.119,2.966.412.288c-25.907,2.512-43.617,5.766-52.679,9.72a3.089,3.089,0,0,0,2.471,5.643c8.526-3.748,26.566-6.961,52.39-9.391a82.127,82.127,0,0,0,2.8,22.571c6.714,17.793,15.9,22.159,26.607,23.065a23.353,23.353,0,0,0,6.26,7.455,62.523,62.523,0,0,0-13.963,18.411,3.09,3.09,0,0,0,5.766,2.224c1.112-2.883,4.448-8.238,13.551-17.258a44.73,44.73,0,0,0,8.237,3.213,46.625,46.625,0,0,0-3.789,14.127,3.012,3.012,0,1,0,6.013.329,42.587,42.587,0,0,1,3.748-13.056,81.92,81.92,0,0,0,26.937,0,43.246,43.246,0,0,1,3.748,13.056,3.011,3.011,0,1,0,6.013-.329,46.625,46.625,0,0,0-3.666-14.169,44.725,44.725,0,0,0,8.237-3.213c9.1,9.02,12.356,14.374,13.551,17.258a3.09,3.09,0,1,0,5.766-2.224,62.524,62.524,0,0,0-13.962-18.411,23.352,23.352,0,0,0,6.26-7.455c10.709-.906,19.894-5.231,26.566-23.024a82.046,82.046,0,0,0,2.677-22.447c25.824,2.43,43.906,5.643,52.39,9.391a3.089,3.089,0,1,0,2.471-5.643c-9.144-4.119-27.184-7.29-53.544-9.8l3.295-2.306,1.277-.906c24.712,1.236,74.961,4.572,92.342,12.356a3.089,3.089,0,0,0,2.471-5.643c-16.722-7.331-60.175-10.791-86.782-12.356q2.348-1.771,4.572-3.625c34.1.206,57.662,2.348,68.33,6.219a3.089,3.089,0,0,0,2.1-5.807c-10.709-3.872-32.167-6.055-63.84-6.508l2.677-2.842h1.03c25.33-1.277,70.389-2.636,87.235,2.718a3.316,3.316,0,0,0,1.936-6.343ZM207.445,291.724a3.091,3.091,0,1,0-5.354,3.089c.659,1.112,1.606,2.883,2.636,4.943a74.753,74.753,0,0,1-21.5,0c1.442-2.924,2.595-4.9,2.636-4.943a3.091,3.091,0,1,0-5.354-3.089c0,.247-1.73,3.007-3.583,6.837a28.831,28.831,0,0,1-14.745-8.237h10.009a24.712,24.712,0,0,0,21.623-12.933A24.712,24.712,0,0,0,215.6,290.283h10.009a28.831,28.831,0,0,1-14.745,8.238c-1.853-3.707-3.419-6.425-3.583-6.714Zm70.43-71.089-.33.247c-3.46,2.883-7.29,5.684-11.038,8.238H263.3c.535-7.043,1.853-13.386,4.407-15.28a3.139,3.139,0,0,0-3.872-4.943c-4.119,3.419-5.931,10.873-6.714,19.894H254.6a3.007,3.007,0,0,0-3.171,3.007,3.089,3.089,0,0,0,3.007,3.171h2.307v3.048H256a3.13,3.13,0,0,0-3.336,2.8,3.089,3.089,0,0,0,2.8,3.336h.865a82.375,82.375,0,0,1-2.307,20.8c-5.807,15.445-12.768,18.7-22.859,19.193H215.6a18.7,18.7,0,0,1-18.658-18.37,22.694,22.694,0,0,1,4.778-3.46c4.119-2.636,10.173-6.261,7.949-11.491-.783-1.812-.247-2.677,6.837-7.5l2.595-1.771a10.214,10.214,0,0,0,5.354-8.238,8.567,8.567,0,0,0-3.913-6.59,3.048,3.048,0,0,0-4.119.906,3.13,3.13,0,0,0,.865,4.119c.33.247,1.071.947,1.112,1.524s-.7,1.689-2.718,3.089l-2.554,1.771c-6.714,4.531-11.986,8.238-9.061,14.7-.33,1.03-3.666,3.048-5.478,4.119a42.08,42.08,0,0,0-4.654,3.171,42.084,42.084,0,0,0-4.654-3.171,30.721,30.721,0,0,1-5.478-3.83c2.924-6.878-2.389-10.462-9.061-15.033l-2.554-1.771c-1.977-1.4-2.718-2.512-2.718-3.089s.741-1.277,1.071-1.524a3.089,3.089,0,0,0-3.336-5.19,8.567,8.567,0,0,0-3.913,6.59,10.214,10.214,0,0,0,5.354,8.237l2.595,1.771c7.125,4.819,7.62,5.684,6.837,7.5-2.224,5.272,3.666,8.855,7.949,11.491a43.12,43.12,0,0,1,4.778,3.171,18.7,18.7,0,0,1-18.7,18.617h-6.425c-15.322.371-24.712.577-32.044-19.193a82.663,82.663,0,0,1-2.306-20.8h.865a3.1,3.1,0,1,0-.535-6.178h-.577V234.68h2.306a3.089,3.089,0,1,0,0-6.178h-2.512c-.783-9.02-2.389-16.475-6.714-19.894a3.367,3.367,0,1,0-4.242,5.231c2.554,2.018,3.748,8.238,4.366,15.281h-3.913c-3.5-2.636-7-5.4-10.214-8.238a3.005,3.005,0,0,0-.618-.577c-1.071-.947-2.142-1.895-3.13-2.842l9.6.618h.247a3.092,3.092,0,1,0,.247-6.178s-6.466-.494-16.475-1.03c-22.406-25.495-22.983-50.249-19.44-61.452,0-.33,9.6-31.385.947-45.018a12.645,12.645,0,0,0-9.061-5.89c-2.554-.33-3.377-4.119-4.119-9.432A39.17,39.17,0,0,0,66.543,81.5a22.118,22.118,0,0,0-6.714-8.032,37.069,37.069,0,0,1-11.45-15.116c-4.119-9.72-.947-15.075.412-16.8a13.139,13.139,0,0,1,8.526,2.224c.288.247,30.973,22.735,44.441,22.735H103.2C90.844,75.367,83.595,86.693,83.595,97.773a3.089,3.089,0,0,0,6.178,0c0-11.574,10.709-24.259,27.307-32.373a56.468,56.468,0,0,0,18.452-6.137,3.089,3.089,0,1,0-3.007-5.4,63.758,63.758,0,0,1-31.137,6.508c-5.148,0-14.992-4.984-24.136-10.5a34.186,34.186,0,0,0,38.3-7.125c16.475-15.734,26.731-21.211,78.256-21.211s61.781,5.519,78.256,21.212a33.691,33.691,0,0,0,23.765,10.091A40.24,40.24,0,0,0,310,50.037c-9.1,5.478-18.946,10.42-24.053,10.42a63.758,63.758,0,0,1-31.138-6.508,3.089,3.089,0,1,0-3.007,5.4,56.509,56.509,0,0,0,18.576,6.219c16.475,8.237,27.307,20.594,27.307,32.373a3.089,3.089,0,0,0,6.178,0c0-11.121-7.29-22.447-19.605-31.261h1.812c13.468,0,44.153-22.488,44.441-22.735A13.139,13.139,0,0,1,339,41.717c1.359,1.771,4.325,7.125.412,16.8a37.069,37.069,0,0,1-11.45,15.116,22.117,22.117,0,0,0-6.714,8.032,39.085,39.085,0,0,0-1.812,7.578c-.947,5.478-1.73,9.1-4.119,9.432a12.645,12.645,0,0,0-9.267,5.972c-8.691,13.633.824,44.73.947,45.018,3.583,11.244,2.965,36-19.44,61.452-9.844.535-16.475,1.03-16.475,1.03a3.092,3.092,0,0,0,.247,6.178h.247l9.6-.618a40.243,40.243,0,0,1-3.3,2.924Z" transform="translate(-5.045 -15.563)" fill="#1d1d1b"/>
        <path id="Tracé_5" data-name="Tracé 5" d="M101.164,66.361a3.089,3.089,0,0,0,2.389-1.153l13.139-16.145a3.089,3.089,0,1,0-4.778-3.913L98.775,61.295a3.089,3.089,0,0,0,2.389,5.025Zm-15.239-8.32a3.048,3.048,0,0,0,1.112,0,3.089,3.089,0,0,0,2.883-1.977l5.807-15.157a3.09,3.09,0,1,0-5.766-2.224L84.154,53.84a3.089,3.089,0,0,0,1.771,4.2ZM73.28,56.764a3.089,3.089,0,0,0,2.842-3.336l-1.03-13.139a3.1,3.1,0,0,0-6.178.494l1.03,13.139a3.089,3.089,0,0,0,3.336,2.842Z" transform="translate(148.437 35.249)" fill="#1d1d1b"/>
        <circle id="Ellipse_1" data-name="Ellipse 1" cx="4.325" cy="4.325" r="4.325" transform="translate(135.553 230.361)" fill="#1d1d1b"/>
        <circle id="Ellipse_2" data-name="Ellipse 2" cx="4.325" cy="4.325" r="4.325" transform="translate(136.995 245.065)" fill="#1d1d1b"/>
        <circle id="Ellipse_3" data-name="Ellipse 3" cx="4.325" cy="4.325" r="4.325" transform="translate(148.28 254.744)" fill="#1d1d1b"/>
        <circle id="Ellipse_4" data-name="Ellipse 4" cx="4.325" cy="4.325" r="4.325" transform="translate(152.069 239.711)" fill="#1d1d1b"/>
        <circle id="Ellipse_5" data-name="Ellipse 5" cx="4.325" cy="4.325" r="4.325" transform="translate(164.096 247.289)" fill="#1d1d1b"/>
        <circle id="Ellipse_6" data-name="Ellipse 6" cx="4.325" cy="4.325" r="4.325" transform="translate(233.332 230.361)" fill="#1d1d1b"/>
        <circle id="Ellipse_7" data-name="Ellipse 7" cx="4.325" cy="4.325" r="4.325" transform="translate(231.89 245.065)" fill="#1d1d1b"/>
        <circle id="Ellipse_8" data-name="Ellipse 8" cx="4.325" cy="4.325" r="4.325" transform="translate(220.605 254.744)" fill="#1d1d1b"/>
        <circle id="Ellipse_9" data-name="Ellipse 9" cx="4.325" cy="4.325" r="4.325" transform="translate(216.816 239.711)" fill="#1d1d1b"/>
        <circle id="Ellipse_10" data-name="Ellipse 10" cx="4.325" cy="4.325" r="4.325" transform="translate(204.789 247.289)" fill="#1d1d1b"/>
        <path id="Tracé_6" data-name="Tracé 6" d="M135.246,69.656A3.089,3.089,0,0,0,131.91,72.5a37.934,37.934,0,0,1-11.327,22.2A37.727,37.727,0,0,1,109.34,72.457a3.1,3.1,0,1,0-6.178.494,45.306,45.306,0,0,0,15.363,28.255,3.026,3.026,0,0,0,3.872,0,45.306,45.306,0,0,0,15.363-28.255,3.089,3.089,0,0,0-2.512-3.3ZM80.92,80.777A3.089,3.089,0,0,0,76.8,81.889c-.824,1.442-1.895,2.965-3.007,4.572-5.519,7.99-13.839,20.1-2.1,32.95a3.089,3.089,0,0,0,4.531-4.119c-7.784-8.443-3.83-15.734,2.636-25.124,1.194-1.771,2.348-3.419,3.254-4.984a3.089,3.089,0,0,0-1.194-4.407Zm83.693,1.112a3.091,3.091,0,0,0-5.354,3.089c.906,1.565,2.059,3.213,3.254,4.984,6.466,9.391,10.42,16.681,2.636,25.124a3.089,3.089,0,1,0,4.531,4.119c11.738-12.727,3.419-24.712-2.1-32.95-1.03-1.4-2.1-2.924-2.965-4.366ZM87.181,121.141a3.094,3.094,0,0,0-5.89-1.895A17.01,17.01,0,0,0,89.158,139.1a3.091,3.091,0,1,0,3.089-5.354A10.791,10.791,0,0,1,87.181,121.141Zm64.788,17.834a17.01,17.01,0,0,0,7.867-19.852,3.094,3.094,0,0,0-5.89,1.895,10.791,10.791,0,0,1-5.066,12.48,3.091,3.091,0,1,0,3.089,5.354Zm-19.523-17.216a15.775,15.775,0,0,1-23.765,0,3.154,3.154,0,0,0-4.778,4.119,21.912,21.912,0,0,0,33.279,0,3.154,3.154,0,0,0-4.778-4.119ZM40.309,61.5a3.089,3.089,0,1,0-2.965,5.4c10.832,5.972,15.528,14.786,15.528,17.958a3.089,3.089,0,0,0,6.178,0c0-6.384-7-16.887-18.74-23.353Zm165.079,1.236A3.089,3.089,0,0,0,201.27,61.5c-11.821,6.466-18.9,16.969-18.9,23.394a3.089,3.089,0,0,0,6.178,0c0-3.171,4.7-12.027,15.528-17.958a3.089,3.089,0,0,0,1.318-4.2Z" transform="translate(68.183 93.61)" fill="#1d1d1b"/>
      </g>
    </g>
  </g>
</svg>
